<?xml version="1.0" encoding="UTF-8" standalone="no"?>
<!-- Created with Inkscape (http://www.inkscape.org/) -->

<svg
   width="16.490995mm"
   height="7.274334mm"
   viewBox="0 0 16.490995 7.274334"
   version="1.1"
   id="svg1"
   inkscape:version="1.3 (0e150ed, 2023-07-21)"
   sodipodi:docname="logo.svg"
   xmlns:inkscape="http://www.inkscape.org/namespaces/inkscape"
   xmlns:sodipodi="http://sodipodi.sourceforge.net/DTD/sodipodi-0.dtd"
   xmlns="http://www.w3.org/2000/svg"
   xmlns:svg="http://www.w3.org/2000/svg">
  <sodipodi:namedview
     id="namedview1"
     pagecolor="#ffffff"
     bordercolor="#000000"
     borderopacity="0.25"
     inkscape:showpageshadow="2"
     inkscape:pageopacity="0.0"
     inkscape:pagecheckerboard="0"
     inkscape:deskcolor="#d1d1d1"
     inkscape:document-units="mm"
     inkscape:zoom="3.1759438"
     inkscape:cx="14.79875"
     inkscape:cy="11.65008"
     inkscape:window-width="1312"
     inkscape:window-height="429"
     inkscape:window-x="0"
     inkscape:window-y="25"
     inkscape:window-maximized="0"
     inkscape:current-layer="layer1" />
  <defs
     id="defs1" />
  <g
     inkscape:label="Layer 1"
     inkscape:groupmode="layer"
     id="layer1"
     transform="translate(-130.175,-110.86042)">
    <rect
       style="fill:#333333;stroke-width:0.0858401;stroke-linecap:square;paint-order:fill markers stroke"
       id="rect1"
       width="16.490995"
       height="7.2743373"
       x="130.175"
       y="110.86042"
       ry="0" />
    <g
       id="g2"
       inkscape:label="Logo"
       transform="translate(87.620496,-9.3774227)">
      <g
         id="g51"
         inkscape:label="g51"
         transform="translate(24.288664,0.09856662)"
         style="fill:#181818;fill-opacity:1">
        <path
           id="path50"
           style="fill:#e6e6e6;fill-opacity:0;stroke:#e6e6e6;stroke-width:0.35;stroke-linecap:round"
           inkscape:label="Left Noodle Hole"
           d="m 21.414924,123.81029 a 1.3489716,3.3302734 0 0 1 -1.348972,3.33027 1.3489716,3.3302734 0 0 1 -1.348971,-3.33027 1.3489716,3.3302734 0 0 1 1.348971,-3.33028 1.3489716,3.3302734 0 0 1 1.348972,3.33028 z" />
        <path
           id="path50-5"
           style="fill:#e6e6e6;fill-opacity:0;stroke:#e6e6e6;stroke-width:0.35;stroke-linecap:round"
           inkscape:label="Right Noodle Rim"
           d="m 32.868931,120.4384 a 1.3489716,3.3302734 0 0 1 1.348971,3.33027 1.3489716,3.3302734 0 0 1 -1.348971,3.33027" />
        <path
           id="rect51"
           style="fill:#e6e6e6;fill-opacity:0;stroke:#e6e6e6;stroke-width:0.328796;stroke-linecap:round"
           d="m 19.834995,120.30367 h 13.360122 c 0.0564,0 0.101797,0.0454 0.101797,0.1018 0,0.0564 -0.0454,0.1018 -0.101797,0.1018 H 19.834995 c -0.05639,0 -0.101797,-0.0454 -0.101797,-0.1018 0,-0.0564 0.0454,-0.1018 0.101797,-0.1018 z" />
        <path
           id="rect51-4"
           style="fill:#e6e6e6;fill-opacity:0;stroke:#e6e6e6;stroke-width:0.328492;stroke-linecap:round"
           d="m 20.710549,121.14244 h 13.314524 c 0.05648,0 0.101949,0.0455 0.101949,0.10195 0,0.0565 -0.04547,0.10195 -0.101949,0.10195 H 20.710549 c -0.05648,0 -0.101948,-0.0455 -0.101948,-0.10195 0,-0.0565 0.04547,-0.10195 0.101948,-0.10195 z" />
        <path
           id="rect51-4-9"
           style="fill:#e6e6e6;fill-opacity:0;stroke:#e6e6e6;stroke-width:0.29107;stroke-linecap:round"
           d="m 19.075687,120.9569 h 1.084426 c 0.06618,0 0.119464,0.0533 0.119464,0.11947 0,0.0662 -0.05328,0.11946 -0.119464,0.11946 h -1.084426 c -0.06618,0 -0.119464,-0.0533 -0.119464,-0.11946 0,-0.0662 0.05328,-0.11947 0.119464,-0.11947 z" />
        <path
           id="rect51-4-9-3"
           style="fill:#e6e6e6;fill-opacity:0;stroke:#e6e6e6;stroke-width:0.29107;stroke-linecap:round"
           d="m 19.105017,126.24925 h 1.084425 c 0.06618,0 0.119465,0.0533 0.119465,0.11947 0,0.0662 -0.05328,0.11946 -0.119465,0.11946 h -1.084425 c -0.06618,0 -0.119465,-0.0533 -0.119465,-0.11946 0,-0.0662 0.05328,-0.11947 0.119465,-0.11947 z" />
        <path
           id="rect51-4-9-3-6"
           style="fill:#e6e6e6;fill-opacity:0;stroke:#e6e6e6;stroke-width:0.33;stroke-linecap:round"
           d="m 18.756038,125.32305 h 1.47 c 0.06008,0 0.108447,0.0484 0.108447,0.10845 0,0.0601 -0.04837,0.10845 -0.108447,0.10845 h -1.47 c -0.06008,0 -0.108447,-0.0484 -0.108447,-0.10845 0,-0.0601 0.04837,-0.10845 0.108447,-0.10845 z" />
        <path
           id="rect51-4-9-3-6-2"
           style="fill:#e6e6e6;fill-opacity:0;stroke:#e6e6e6;stroke-width:0.33;stroke-linecap:round"
           d="m 18.539285,124.15439 h 1.47 c 0.06008,0 0.108447,0.0484 0.108447,0.10845 0,0.0601 -0.04837,0.10844 -0.108447,0.10844 h -1.47 c -0.06008,0 -0.108447,-0.0484 -0.108447,-0.10844 0,-0.0601 0.04837,-0.10845 0.108447,-0.10845 z" />
        <path
           id="rect51-4-9-3-6-2-8"
           style="fill:#e6e6e6;fill-opacity:0;stroke:#e6e6e6;stroke-width:0.33;stroke-linecap:round"
           d="m 18.566291,122.94125 h 1.47 c 0.06008,0 0.108447,0.0484 0.108447,0.10845 0,0.0601 -0.04837,0.10845 -0.108447,0.10845 h -1.47 c -0.06008,0 -0.108447,-0.0484 -0.108447,-0.10845 0,-0.0601 0.04837,-0.10845 0.108447,-0.10845 z" />
        <path
           id="rect51-4-9-3-6-2-8-1"
           style="fill:#e6e6e6;fill-opacity:0;stroke:#e6e6e6;stroke-width:0.33;stroke-linecap:round"
           d="m 18.712086,121.93752 h 1.470001 c 0.06008,0 0.108447,0.0484 0.108447,0.10845 0,0.0601 -0.04837,0.10845 -0.108447,0.10845 h -1.470001 c -0.06008,0 -0.108446,-0.0484 -0.108446,-0.10845 0,-0.0601 0.04837,-0.10845 0.108446,-0.10845 z" />
        <path
           id="rect51-4-4"
           style="fill:#e6e6e6;fill-opacity:0;stroke:#e6e6e6;stroke-width:0.328492;stroke-linecap:round"
           d="m 21.038737,122.21877 h 13.314524 c 0.05648,0 0.101949,0.0455 0.101949,0.10195 0,0.0565 -0.04547,0.10195 -0.101949,0.10195 H 21.038737 c -0.05648,0 -0.101948,-0.0455 -0.101948,-0.10195 0,-0.0565 0.04547,-0.10195 0.101948,-0.10195 z" />
        <path
           id="rect51-4-4-1"
           style="fill:#e6e6e6;fill-opacity:0;stroke:#e6e6e6;stroke-width:0.328492;stroke-linecap:round"
           d="m 21.176114,123.45051 h 13.314524 c 0.05648,0 0.101949,0.0455 0.101949,0.10195 0,0.0565 -0.04547,0.10195 -0.101949,0.10195 H 21.176114 c -0.05648,0 -0.101949,-0.0455 -0.101949,-0.10195 0,-0.0565 0.04547,-0.10195 0.101949,-0.10195 z" />
        <path
           id="rect51-4-4-1-2"
           style="fill:#e6e6e6;fill-opacity:0;stroke:#e6e6e6;stroke-width:0.328492;stroke-linecap:round"
           d="m 21.140103,124.73682 h 13.314524 c 0.05648,0 0.101949,0.0455 0.101949,0.10195 0,0.0565 -0.04547,0.10194 -0.101949,0.10194 H 21.140103 c -0.05648,0 -0.101948,-0.0455 -0.101948,-0.10194 0,-0.0565 0.04547,-0.10195 0.101948,-0.10195 z" />
        <path
           id="rect51-4-4-1-2-0"
           style="fill:#e6e6e6;fill-opacity:0;stroke:#e6e6e6;stroke-width:0.328492;stroke-linecap:round"
           d="m 20.885104,125.86833 h 13.314524 c 0.05648,0 0.101949,0.0455 0.101949,0.10195 0,0.0565 -0.04547,0.10195 -0.101949,0.10195 H 20.885104 c -0.05648,0 -0.101949,-0.0455 -0.101949,-0.10195 0,-0.0565 0.04547,-0.10195 0.101949,-0.10195 z" />
        <path
           id="rect51-4-4-1-2-0-6"
           style="fill:#e6e6e6;fill-opacity:0;stroke:#e6e6e6;stroke-width:0.328492;stroke-linecap:round"
           d="m 20.429128,126.60748 h 13.314523 c 0.05648,0 0.101949,0.0455 0.101949,0.10195 0,0.0565 -0.04547,0.10195 -0.101949,0.10195 H 20.429128 c -0.05648,0 -0.101949,-0.0455 -0.101949,-0.10195 0,-0.0565 0.04547,-0.10195 0.101949,-0.10195 z" />
        <path
           id="rect51-4-4-1-2-0-6-3"
           style="fill:#e6e6e6;fill-opacity:0;stroke:#e6e6e6;stroke-width:0.328492;stroke-linecap:round"
           d="m 19.799762,127.04546 h 13.314523 c 0.05648,0 0.101949,0.0455 0.101949,0.10195 0,0.0565 -0.04547,0.10195 -0.101949,0.10195 H 19.799762 c -0.05648,0 -0.101949,-0.0455 -0.101949,-0.10195 0,-0.0565 0.04547,-0.10195 0.101949,-0.10195 z" />
      </g>
      <path
         id="rect6"
         style="fill:#333333;stroke-width:0;stroke-linecap:round;stroke-linejoin:round;paint-order:stroke fill markers"
         d="M 43.833298,122.47838 H 57.7667 v 2.79325 H 43.833298 Z"
         inkscape:label="RIGATONI TEXT BACKGROUND RECT" />
      <path
         d="m 44.171495,124.82198 v -1.89394 h 0.975392 q 0.271301,0 0.414702,0.0465 0.143402,0.0465 0.231252,0.17311 0.08785,0.12532 0.08785,0.30618 0,0.15762 -0.06718,0.2726 -0.06718,0.11369 -0.184743,0.18474 -0.07493,0.0452 -0.205414,0.0749 0.104645,0.0349 0.152445,0.0698 0.0323,0.0233 0.09302,0.0995 0.06201,0.0762 0.08268,0.11756 l 0.282928,0.54907 H 45.37297 l -0.312642,-0.57878 q -0.05943,-0.1124 -0.105937,-0.14598 -0.0633,-0.0439 -0.143402,-0.0439 h -0.05168 v 0.76869 z m 0.587819,-1.12655 h 0.246754 q 0.04005,0 0.15503,-0.0258 0.05814,-0.0116 0.09431,-0.0594 0.03746,-0.0478 0.03746,-0.10982 0,-0.0917 -0.05814,-0.14081 -0.05814,-0.0491 -0.218332,-0.0491 h -0.25709 z m 1.379862,-0.76739 h 0.586527 v 1.89394 h -0.586527 z m 1.852702,1.20793 v -0.39403 h 0.904336 v 0.80744 q -0.259674,0.177 -0.45992,0.24159 -0.198954,0.0633 -0.472838,0.0633 -0.337189,0 -0.550354,-0.11498 -0.211873,-0.11498 -0.329437,-0.34235 -0.116271,-0.22738 -0.116271,-0.52193 0,-0.31006 0.127899,-0.53873 0.127899,-0.22996 0.374653,-0.34881 0.192495,-0.0917 0.518056,-0.0917 0.313934,0 0.468963,0.0568 0.156321,0.0568 0.258382,0.177 0.103352,0.11885 0.155029,0.3023 l -0.564564,0.10077 q -0.03488,-0.10723 -0.118856,-0.16407 -0.08268,-0.0568 -0.211873,-0.0568 -0.192495,0 -0.307475,0.13436 -0.113688,0.13307 -0.113688,0.42246 0,0.30747 0.11498,0.43925 0.116272,0.13177 0.322978,0.13177 0.09819,0 0.187326,-0.0284 0.08914,-0.0284 0.204122,-0.0969 v -0.17829 z m 2.311328,0.37336 h -0.666625 l -0.09173,0.31265 h -0.598154 l 0.711842,-1.89394 h 0.638203 l 0.711842,1.89394 h -0.612365 z m -0.122731,-0.40953 -0.209289,-0.68084 -0.207998,0.68084 z m 0.594382,-1.17176 h 1.778959 v 0.46767 h -0.596862 v 1.42627 h -0.585235 v -1.42627 h -0.596862 z m 1.773895,0.94826 q 0,-0.4638 0.258382,-0.72218 0.258381,-0.25838 0.719593,-0.25838 0.472839,0 0.728637,0.25451 0.255798,0.25321 0.255798,0.71055 0,0.33202 -0.112396,0.54518 -0.111105,0.21187 -0.322978,0.33073 -0.210581,0.11756 -0.525807,0.11756 -0.320393,0 -0.530974,-0.10206 -0.20929,-0.10206 -0.339772,-0.32297 -0.130483,-0.22092 -0.130483,-0.55294 z m 0.585235,0.003 q 0,0.28681 0.105936,0.41212 0.107229,0.12532 0.29068,0.12532 0.188618,0 0.291971,-0.12273 0.103353,-0.12274 0.103353,-0.44055 0,-0.26742 -0.108521,-0.39015 -0.107228,-0.12403 -0.291971,-0.12403 -0.176992,0 -0.28422,0.12532 -0.107228,0.12531 -0.107228,0.4147 z m 1.590443,-0.95084 h 0.546477 l 0.713134,1.04774 v -1.04774 h 0.551645 v 1.89394 h -0.551645 l -0.709258,-1.03999 v 1.03999 H 54.72443 Z m 2.117543,0 h 0.586531 v 1.89394 h -0.586531 z"
         id="text6"
         style="font-weight:900;font-size:2.64583px;font-family:'Arial Black';-inkscape-font-specification:'Arial Black,  Heavy';text-align:center;letter-spacing:-0.105833px;text-anchor:middle;fill:#e6e6e6;fill-opacity:1;stroke-width:0;stroke-linecap:round;stroke-linejoin:round;paint-order:stroke fill markers"
         aria-label="RIGATONI"
         inkscape:label="RIGATONI TEXT" />
    </g>
  </g>
</svg>
