<?xml version="1.0" encoding="UTF-8" standalone="no"?>
<!-- Generator: Adobe Illustrator 25.2.3, SVG Export Plug-In . SVG Version: 6.00 Build 0)  -->

<svg
   version="1.0"
   id="svg56722"
   sodipodi:docname="CKSS_Horizontal_1.svg"
   x="0px"
   y="0px"
   width="20.641029"
   height="14.00007"
   viewBox="0 0 20.641029 14.00007"
   enable-background="new 0 0 14 20.64111"
   xml:space="preserve"
   inkscape:version="1.3 (0e150ed, 2023-07-21)"
   xmlns:inkscape="http://www.inkscape.org/namespaces/inkscape"
   xmlns:sodipodi="http://sodipodi.sourceforge.net/DTD/sodipodi-0.dtd"
   xmlns="http://www.w3.org/2000/svg"
   xmlns:svg="http://www.w3.org/2000/svg"><defs
   id="defs4" />&#10;<sodipodi:namedview
   bordercolor="#666666"
   borderopacity="1.0"
   fit-margin-bottom="0"
   fit-margin-left="0"
   fit-margin-right="0"
   fit-margin-top="0"
   id="base"
   inkscape:current-layer="svg56722"
   inkscape:cx="8.6818751"
   inkscape:cy="4.0952333"
   inkscape:document-units="mm"
   inkscape:pageopacity="0.0"
   inkscape:pageshadow="2"
   inkscape:window-height="768"
   inkscape:window-maximized="0"
   inkscape:window-width="1440"
   inkscape:window-x="0"
   inkscape:window-y="25"
   inkscape:zoom="10.966701"
   pagecolor="#ffffff"
   showgrid="false"
   units="px"
   inkscape:showpageshadow="2"
   inkscape:pagecheckerboard="0"
   inkscape:deskcolor="#d1d1d1"
   inkscape:rotation="30">&#10;	</sodipodi:namedview>&#10;<path
   id="path5785"
   inkscape:connector-curvature="0"
   d="m 19.16595,0 c 0.81043,0 1.47508,0.66471 1.47508,1.47514 v 11.04979 c 0,0.81036 -0.66477,1.47514 -1.47508,1.47514 H 1.47406 C 0.66363,14.00007 0,13.33536 0,12.52493 V 1.47514 C 1e-5,0.66477 0.66364,0 1.47407,0 Z" />&#10;<g
   id="g5795"
   opacity="0.54"
   transform="rotate(90,10.320515,10.320515)">&#10;	<g
   id="g5797">&#10;		<linearGradient
   id="path5805_1_"
   gradientUnits="userSpaceOnUse"
   x1="6.9992099"
   y1="1.33285"
   x2="6.9992099"
   y2="19.459539">&#10;			<stop
   offset="0"
   style="stop-color:#3B3B3B"
   id="stop1" />&#10;			<stop
   offset="1"
   style="stop-color:#242424"
   id="stop2" />&#10;		</linearGradient>&#10;		<path
   id="path5805"
   inkscape:connector-curvature="0"
   fill="url(#path5805_1_)"
   d="m 2.19312,1.33285 c -0.48687,0 -0.88421,0.39734 -0.88421,0.88421 v 0 16.35726 c 0,0.48687 0.3974,0.88522 0.88421,0.88522 v 0 h 9.6132 c 0.48477,0 0.88319,-0.39849 0.88319,-0.88522 v 0 -16.35726 c 0,-0.48687 -0.39842,-0.88421 -0.88319,-0.88421 v 0 z"
   style="fill:url(#path5805_1_)" />&#10;	</g>&#10;</g>&#10;<rect
   x="1.3099302"
   y="-2.0567806"
   fill="none"
   width="0.68290001"
   height="0.89523"
   id="rect2"
   transform="rotate(90)" />&#10;<rect
   x="0.99908006"
   y="-10.79591"
   opacity="0.44"
   width="12.00026"
   height="3.5467601"
   id="rect3"
   transform="rotate(90)" />&#10;<g
   id="g4"
   transform="rotate(90,10.320515,10.320515)">&#10;	<linearGradient
   id="path5815_1_"
   gradientUnits="userSpaceOnUse"
   x1="7.0002298"
   y1="1.33285"
   x2="7.0002298"
   y2="10.17937">&#10;		<stop
   offset="0.00559"
   style="stop-color:#3D3B3B"
   id="stop3" />&#10;		<stop
   offset="1"
   style="stop-color:#2D2C2C"
   id="stop4" />&#10;	</linearGradient>&#10;	<path
   id="path5815"
   inkscape:connector-curvature="0"
   fill="url(#path5815_1_)"
   d="m 1.30993,1.33285 h 11.38059 v 8.84651 H 1.30993 Z"
   style="fill:url(#path5815_1_)" />&#10;	<path
   id="path5817"
   inkscape:connector-curvature="0"
   fill="#5e5e5e"
   d="M 1.30993,4.87977 H 12.69052 V 5.75715 H 1.30993 Z" />&#10;	<path
   id="path5819"
   inkscape:connector-curvature="0"
   fill="#5e5e5e"
   d="M 1.30993,8.4267 H 12.69052 V 9.30408 H 1.30993 Z" />&#10;	<path
   id="path5821"
   inkscape:connector-curvature="0"
   fill="#5e5e5e"
   d="M 1.30993,6.65409 H 12.69052 V 7.53147 H 1.30993 Z" />&#10;	<path
   id="path5823"
   inkscape:connector-curvature="0"
   fill="#5e5e5e"
   d="M 1.30993,3.10637 H 12.69052 V 3.98375 H 1.30993 Z" />&#10;	<path
   id="path5825"
   inkscape:connector-curvature="0"
   fill="#797979"
   d="M 1.30993,1.33285 H 12.69052 V 2.21023 H 1.30993 Z" />&#10;</g>&#10;</svg>
